<svg version="1.1" xmlns="http://www.w3.org/2000/svg" style="display: block;" viewBox="309 136 1582 1546" preserveAspectRatio="xMidYMid meet">
<path transform="translate(0,0)" fill="rgb(18,33,40)" d="M 1156.22 456.374 C 1190.65 407.242 1230.21 361.914 1274.23 321.155 C 1335.17 265.338 1404.68 217.926 1481.57 187.357 C 1521.29 171.566 1554.04 166.413 1584.02 202.444 C 1624.11 250.612 1649.68 336.044 1659.56 397.047 C 1666.05 434.927 1668.38 473.402 1666.51 511.788 C 1662.45 592.975 1637.38 669.417 1582.91 731.032 C 1567.73 748.198 1554.69 758.123 1538.06 773.131 C 1547.92 800.811 1573.56 837.572 1599.31 851.312 C 1629.19 867.259 1639.29 862.321 1625.23 902.564 C 1616.16 928.554 1602.64 953.373 1583.69 974.424 C 1626.44 962.478 1653.6 940.508 1652.55 893.019 C 1652.13 873.629 1645.42 840.765 1679.16 856.783 C 1744.96 888.021 1799.08 957.314 1823.75 1024.39 C 1860.4 1124.06 1847.38 1236.94 1804.64 1332.26 C 1785.1 1378.9 1743.31 1431.72 1705.89 1465.23 C 1673.2 1494.74 1636.85 1519.94 1597.74 1540.19 C 1447.47 1619.51 1231 1651.98 1062.5 1642.37 C 886.772 1633.07 708.004 1578.47 588.121 1442.93 C 517.387 1362.96 466.812 1225.67 561.504 1142.34 L 557.872 1141.46 C 493.732 1125.67 433.862 1091.21 398.738 1033.73 C 391.04 1021.13 378.11 1003.42 398.591 995.654 C 402.707 994.094 406.198 992.426 410.102 990.417 C 382.319 960.624 359.523 932.433 347.202 892.76 C 338.696 865.371 367.598 866.094 386.05 857.4 C 430.412 836.497 455.458 804.925 479.007 763.464 C 362.423 650.891 356.508 464.289 404.673 318.586 C 421.327 268.205 451.254 187.625 509.283 175.17 C 531.549 174.176 551.014 181.375 571.219 189.905 C 703.135 245.598 803.18 341.52 883.577 457.505 C 896.416 451.308 912.755 446.473 926.46 442.376 C 1007.03 418.289 1078.61 426.79 1156.22 456.374 z"/>
<path transform="translate(0,0)" fill="rgb(34,139,150)" d="M 1176.96 508.18 C 1233.83 406.783 1352.96 309.044 1455.74 256.604 C 1469.91 249.375 1527.35 219.939 1540.61 230.914 C 1578.12 261.948 1592.41 335.791 1605.4 381.155 C 1626.51 474.549 1622.63 586.116 1569.88 668.699 C 1553.64 694.128 1538.28 710.422 1515.52 729.786 L 1511.27 720.355 C 1499.2 694.41 1491.7 680.041 1475.37 656.277 C 1478.29 644.465 1480.46 632.481 1481.89 620.397 C 1487.46 570.68 1476.43 457.795 1402.93 519.542 C 1420.49 443.702 1470.4 365.202 1521.09 307.181 C 1510.12 303.707 1494.29 311.084 1484.74 316.171 C 1405.05 358.651 1356.7 455.67 1330.75 537.713 C 1328.96 543.31 1327.27 548.939 1325.67 554.596 C 1391.48 593.276 1436.55 650.039 1469.68 718.215 C 1503.12 787.008 1511.59 842.831 1581.44 887.165 C 1568.11 925.269 1541.24 961.136 1507.87 984.77 C 1507.17 985.269 1505.76 985.652 1504.89 985.768 C 1427.35 989.69 1351.32 1008.73 1281.08 1041.81 C 1172.77 1092.35 1079.24 1176.79 953.067 1170.72 C 898.196 1169.59 848.688 1147.21 797.942 1130.16 C 759.815 1117.35 704.211 1103.97 663.51 1107.33 C 595.531 1112.93 522.679 1094.76 470.094 1047.44 C 461.092 1039.29 452.883 1030.3 445.58 1020.6 C 459.825 1013.65 473.788 1006.91 487.726 999.332 C 480.46 993.084 470.802 986.7 462.745 979.738 C 434.935 955.712 413.185 930.166 397.371 896.952 C 448.673 874.839 492.305 833.114 516.588 783.348 C 564.702 684.747 617.265 617.229 710.943 556.104 C 692.498 483.656 650.231 390.85 593.506 340.576 C 575.639 324.741 547.683 304.781 522.8 306.249 C 576.176 368.198 614.624 441.57 635.184 520.717 C 618.804 506.11 594.168 490.236 577.107 514.547 C 550.679 552.206 553.61 612.262 558.367 655.953 C 542.55 674.434 528.708 694.518 517.067 715.878 L 510.572 727.292 C 398.469 615.003 411.21 421.611 470.022 286.511 C 477.648 268.993 494.052 228.203 517.247 228.417 C 530.189 228.537 552.152 238.881 564.453 244.566 C 643.881 281.279 715.479 332.976 775.318 396.82 C 808.55 431.976 837.007 467.116 860.891 509.146 C 969.514 463.428 1044.79 453.926 1156.35 499.376 C 1163.26 502.233 1170.13 505.168 1176.96 508.18 z"/>
<path transform="translate(0,0)" fill="rgb(224,236,220)" d="M 1046.24 983.949 C 1089.92 880.72 1146.61 789.991 1254.28 743.788 C 1326.01 713.008 1392.78 731.028 1426.37 804.438 C 1446.48 848.988 1473.98 883.753 1524.95 893.044 C 1529.01 893.785 1535.21 894.346 1537.55 897.868 C 1534.65 907.557 1522.32 922.225 1515.37 929.714 C 1500.74 945.478 1482.13 955.481 1462.88 964.406 C 1467.82 967.19 1504.15 984.088 1504.89 985.768 C 1427.35 989.69 1351.32 1008.73 1281.08 1041.81 C 1172.77 1092.35 1079.24 1176.79 953.067 1170.72 C 898.196 1169.59 848.688 1147.21 797.942 1130.16 C 759.815 1117.35 704.211 1103.97 663.51 1107.33 C 595.531 1112.93 522.679 1094.76 470.094 1047.44 C 461.092 1039.29 452.883 1030.3 445.58 1020.6 C 459.825 1013.65 473.788 1006.91 487.726 999.332 C 501.973 993.068 529.002 977.964 542 969.316 C 516.178 958.899 492.887 943.831 475.983 920.22 C 474.549 918.216 473.676 915.385 474.368 912.888 C 479.954 909.921 486.288 909.391 492.292 907.549 C 527.995 896.596 560.708 874.729 580.69 842.739 C 588.404 829.805 595.073 816.326 602.491 803.191 C 647.155 724.106 728.656 712.517 803.797 758.424 C 889.112 810.547 926.334 889.359 949.979 983.326 C 979.183 975.314 1017.15 975.132 1046.24 983.949 z"/>
<path transform="translate(0,0)" fill="rgb(18,33,40)" d="M 949.979 983.326 C 979.183 975.314 1017.15 975.132 1046.24 983.949 C 1117.36 1002.52 1041.92 1065.18 1009.33 1075.76 C 977.522 1086.1 929.929 1046.44 920.312 1017.8 C 913.179 996.558 934.07 988.043 949.979 983.326 z"/>
<path transform="translate(0,0)" fill="rgb(18,33,40)" d="M 768.99 845.288 C 845.403 839.997 873.452 976.301 788.878 993.123 C 703.355 1004.79 686.721 858.731 768.99 845.288 z"/>
<path transform="translate(0,0)" fill="rgb(224,236,220)" d="M 787.74 869.399 C 794.533 868.098 801.501 870.551 805.982 875.82 C 810.463 881.089 811.764 888.36 809.389 894.856 C 807.013 901.352 801.328 906.069 794.505 907.204 C 784.133 908.931 774.3 901.994 772.448 891.643 C 770.596 881.292 777.412 871.377 787.74 869.399 z"/>
<path transform="translate(0,0)" fill="rgb(18,33,40)" d="M 1237.46 844.418 C 1296.92 845.854 1313.28 927.533 1281.21 968.172 C 1267.47 985.581 1255.53 991.139 1233.99 994.082 C 1143.41 988.439 1159.15 850.882 1237.46 844.418 z"/>
<path transform="translate(0,0)" fill="rgb(224,236,220)" d="M 1239.72 869.454 C 1246.41 867.781 1253.49 869.842 1258.24 874.847 C 1262.99 879.853 1264.67 887.028 1262.65 893.626 C 1260.63 900.223 1255.21 905.221 1248.48 906.707 C 1238.26 908.959 1228.12 902.585 1225.73 892.399 C 1223.33 882.212 1229.56 871.991 1239.72 869.454 z"/>
<path transform="translate(0,0)" fill="rgb(224,236,220)" d="M 1521.09 307.181 C 1531.42 306.441 1541 325.943 1544.77 333.776 C 1567.04 380.072 1576.76 432.541 1580 483.507 C 1585.75 563.889 1561.82 656.224 1511.27 720.355 C 1499.2 694.41 1491.7 680.041 1475.37 656.277 C 1478.29 644.465 1480.46 632.481 1481.89 620.397 C 1487.46 570.68 1476.43 457.795 1402.93 519.542 C 1420.49 443.702 1470.4 365.202 1521.09 307.181 z"/>
<path transform="translate(0,0)" fill="rgb(224,236,220)" d="M 517.067 715.878 C 511.04 708.246 501.535 688.975 497.322 679.888 C 451.793 581.684 450.744 462.043 487.817 361.02 C 494.395 343.096 505.106 314.325 522.8 306.249 C 576.176 368.198 614.624 441.57 635.184 520.717 C 618.804 506.11 594.168 490.236 577.107 514.547 C 550.679 552.206 553.61 612.262 558.367 655.953 C 542.55 674.434 528.708 694.518 517.067 715.878 z"/>
<path transform="translate(0,0)" fill="rgb(34,139,150)" d="M 1691.57 911.95 C 1751.86 961.583 1788.28 1038.02 1795.69 1115.15 C 1805.3 1217 1774.11 1318.51 1708.94 1397.39 C 1707.43 1399.22 1705.93 1401.07 1704.33 1402.83 C 1668.91 1440.88 1641.34 1463.48 1596.52 1490.71 C 1568.51 1506.67 1549.43 1515.92 1519.48 1528.61 C 1504.5 1534.25 1489.6 1539.96 1474.36 1544.93 C 1259.92 1614.86 974.748 1629.76 770.564 1525.68 C 679.781 1479.41 597.36 1407.48 565.063 1308.31 C 561.988 1297.58 560.097 1286.82 558.384 1275.82 C 557.831 1274.23 557.815 1268.59 557.706 1266.58 C 556.721 1248.38 558.484 1233.17 564.353 1215.94 C 574.204 1187.01 594.534 1166.14 621.976 1153.17 C 694.368 1118.94 774.92 1164.34 843.752 1189.4 C 958.315 1231.12 1054.74 1210.35 1159.85 1154.04 C 1177.05 1144.83 1194.93 1135.2 1212.2 1125.87 C 1226.51 1118.15 1241.37 1108.76 1256.04 1101.78 C 1311.91 1072.66 1361.16 1050.25 1423.09 1035.2 C 1447.85 1029.34 1472.96 1025.05 1498.27 1022.37 C 1554.22 1016.42 1618.48 1016.75 1661.62 974.723 C 1679.22 957.57 1688.35 936.045 1691.57 911.95 z"/>
<path transform="translate(0,0)" fill="rgb(34,139,150)" d="M 565.063 1308.31 C 598.747 1275.12 640.336 1260.68 687.24 1261.14 C 771.649 1261.97 842.998 1311.7 913.197 1352.17 C 943.633 1369.72 980.269 1388.09 1012.63 1400.68 C 1066.43 1421.26 1122.68 1434.78 1179.96 1440.9 C 1209.47 1444.1 1239.09 1446.21 1268.76 1447.21 C 1342 1449.86 1443.89 1447.3 1499.78 1502.2 C 1507.6 1509.89 1513.82 1519.29 1519.48 1528.61 C 1504.5 1534.25 1489.6 1539.96 1474.36 1544.93 C 1259.92 1614.86 974.748 1629.76 770.564 1525.68 C 679.781 1479.41 597.36 1407.48 565.063 1308.31 z"/>
<path transform="translate(0,0)" fill="rgb(224,236,220)" d="M 1691.57 911.95 C 1751.86 961.583 1788.28 1038.02 1795.69 1115.15 C 1805.3 1217 1774.11 1318.51 1708.94 1397.39 C 1707.43 1399.22 1705.93 1401.07 1704.33 1402.83 C 1704.85 1397.46 1715.29 1381.29 1718.25 1374.35 C 1735.24 1334.53 1743.54 1301.89 1743.04 1258.63 C 1736.5 1265.92 1726.96 1278.17 1721.22 1286.49 C 1711.83 1300.1 1649.23 1354.53 1635.12 1349.6 C 1637.82 1340.89 1643.76 1328.07 1647.27 1318.91 C 1654.49 1300.45 1659.86 1281.31 1663.31 1261.78 C 1668.17 1233.75 1669.26 1205.19 1666.56 1176.86 C 1666.13 1171.9 1666.02 1163.79 1663.3 1159.9 C 1661.2 1159.6 1661.05 1159.18 1659.23 1160.81 C 1641.9 1176.34 1626.38 1189.02 1605.76 1200.41 C 1571.26 1219.5 1532.81 1230.35 1493.41 1232.11 C 1484.43 1232.52 1450.89 1233.68 1445.05 1228.36 C 1444.64 1223.97 1447.76 1222.36 1450.66 1219.45 C 1481.57 1188.35 1510.18 1150.79 1528.61 1110.86 C 1452.86 1079.53 1355.57 1078.34 1276.81 1097.46 C 1270.58 1098.97 1262.18 1101.61 1256.04 1101.78 C 1311.91 1072.66 1361.16 1050.25 1423.09 1035.2 C 1447.85 1029.34 1472.96 1025.05 1498.27 1022.37 C 1554.22 1016.42 1618.48 1016.75 1661.62 974.723 C 1679.22 957.57 1688.35 936.045 1691.57 911.95 z"/>
<path transform="translate(0,0)" fill="rgb(224,236,220)" d="M 558.384 1275.82 C 560.956 1267.45 589.928 1249.45 599.343 1244.64 C 659.55 1213.86 726.305 1217.89 789.077 1237.68 C 849.609 1256.76 897.859 1289.04 952.792 1318.24 C 988.544 1337.67 1026.21 1353.36 1065.19 1365.05 C 1122.11 1382.04 1178.65 1388.7 1238.42 1392.13 C 1342.14 1398.07 1465.69 1381.95 1555.54 1445.72 C 1570.36 1456.24 1587.86 1474.79 1596.52 1490.71 C 1568.51 1506.67 1549.43 1515.92 1519.48 1528.61 C 1513.82 1519.29 1507.6 1509.89 1499.78 1502.2 C 1443.89 1447.3 1342 1449.86 1268.76 1447.21 C 1239.09 1446.21 1209.47 1444.1 1179.96 1440.9 C 1122.68 1434.78 1066.43 1421.26 1012.63 1400.68 C 980.269 1388.09 943.633 1369.72 913.197 1352.17 C 842.998 1311.7 771.649 1261.97 687.24 1261.14 C 640.336 1260.68 598.747 1275.12 565.063 1308.31 C 561.988 1297.58 560.097 1286.82 558.384 1275.82 z"/>
</svg>